<?xml version="1.0" encoding="UTF-8" standalone="no"?>
<svg
   xmlns:dc="http://purl.org/dc/elements/1.1/"
   xmlns:cc="http://creativecommons.org/ns#"
   xmlns:rdf="http://www.w3.org/1999/02/22-rdf-syntax-ns#"
   xmlns:svg="http://www.w3.org/2000/svg"
   xmlns="http://www.w3.org/2000/svg"
   xmlns:sodipodi="http://sodipodi.sourceforge.net/DTD/sodipodi-0.dtd"
   xmlns:inkscape="http://www.inkscape.org/namespaces/inkscape"
   enable-background="new 0 0 508 508"
   version="1.1"
   viewBox="0 0 500 500"
   xml:space="preserve"
   id="svg20"
   sodipodi:docname="LogoADS-minified.svg"
   width="500"
   height="500"
   inkscape:version="0.92.5 (2060ec1f9f, 2020-04-08)"><metadata
   id="metadata26"><rdf:RDF><cc:Work
       rdf:about=""><dc:format>image/svg+xml</dc:format><dc:type
         rdf:resource="http://purl.org/dc/dcmitype/StillImage" /><dc:title></dc:title></cc:Work></rdf:RDF></metadata><defs
   id="defs24" /><sodipodi:namedview
   pagecolor="#ffffff"
   bordercolor="#666666"
   borderopacity="1"
   objecttolerance="10"
   gridtolerance="10"
   guidetolerance="10"
   inkscape:pageopacity="0"
   inkscape:pageshadow="2"
   inkscape:window-width="1231"
   inkscape:window-height="800"
   id="namedview22"
   showgrid="false"
   fit-margin-top="0"
   fit-margin-left="0"
   fit-margin-right="0"
   fit-margin-bottom="0"
   inkscape:zoom="0.46456693"
   inkscape:cx="709.26271"
   inkscape:cy="30.135593"
   inkscape:window-x="36"
   inkscape:window-y="0"
   inkscape:window-maximized="0"
   inkscape:current-layer="svg20" />
<path
   d="M 424.11417,0 C 414.0748,0 406.00394,8.070866 406.00394,18.110236 V 447.34252 c 0,10.03937 8.07086,18.11024 18.11023,18.11024 10.03937,0 18.11024,-8.07087 18.11024,-18.11024 V 18.110236 C 442.22441,8.070866 434.15354,0 424.11417,0 Z"
   id="path2"
   inkscape:connector-curvature="0"
   style="fill:#4cdbc4;stroke-width:0.98425198" />
<path
   d="m 406.00394,18.110236 c 0,-4.429134 1.67323,-8.464567 4.33071,-11.614173 L 160.43307,124.6063 v 216.33858 l 249.90158,118.01181 c -2.65748,-3.1496 -4.33071,-7.18504 -4.33071,-11.61417 z"
   id="path4"
   inkscape:connector-curvature="0"
   style="fill:#f2f2f2;stroke-width:0.98425198" />
<path
   d="M 442.22441,151.5748 V 314.17323 C 475.88583,302.46063 500,270.47244 500,232.87402 500,195.27559 475.88583,163.2874 442.22441,151.5748 Z"
   id="path6"
   inkscape:connector-curvature="0"
   style="fill:#cdd6e0;stroke-width:0.98425198" />
<path
   d="M 20.866142,124.6063 C 9.3503937,124.6063 0,133.85827 0,145.37402 v 174.70472 c 0,11.51575 9.3503937,20.86614 20.866142,20.86614 H 160.43307 V 124.6063 Z"
   id="path8"
   inkscape:connector-curvature="0"
   style="fill:#4cdbc4;stroke-width:0.98425198" />
<path
   d="m 149.11417,443.79921 -1.08267,-8.07086 -2.65748,-19.19292 -2.75591,-19.48819 -2.65748,-19.19291 -2.75591,-19.48819 -2.46063,-17.42126 H 35.03937 L 51.279528,457.48031 C 54.625984,481.88976 75.492126,500 100.19685,500 c 26.08268,0 46.85039,-19.98031 49.11417,-44.78346 0.19685,-1.47638 0.19685,-2.95276 0.19685,-4.52756 0.0984,-2.26378 -0.0984,-4.62599 -0.3937,-6.88977 z"
   id="path10"
   inkscape:connector-curvature="0"
   style="fill:#40596b;stroke-width:0.98425198" />
<g
   id="g18"
   transform="scale(0.98425197)"
   style="fill:#334a5e">
	<path
   d="M 142.1,383.9 H 98.4 c -5.5,0 -9.9,-4.5 -9.9,-9.9 0,-5.5 4.5,-9.9 9.9,-9.9 h 40.9 z"
   id="path12"
   inkscape:connector-curvature="0" />
	<path
   d="m 147.6,423.2 h -34.9 c -5.5,0 -9.9,-4.4 -9.9,-9.9 0,-5.5 4.4,-9.9 9.9,-9.9 h 32.2 z"
   id="path14"
   inkscape:connector-curvature="0" />
	<path
   d="m 152,457.9 c 0,1.5 -0.1,3.1 -0.2,4.6 H 127 c -5.5,0 -9.9,-4.4 -9.9,-9.9 0,-5.5 4.5,-9.9 9.9,-9.9 h 23.3 l 1.1,8.2 c 0.4,2.3 0.6,4.7 0.6,7 z"
   id="path16"
   inkscape:connector-curvature="0" />
</g>















</svg>